<svg width="26" height="42" viewBox="0 0 26 42" fill="none" xmlns="http://www.w3.org/2000/svg">
<path d="M14.4606 3.11111C15.5526 3.11111 16.6029 3.64888 17.3937 4.61301L21.7683 9.94627C22.6112 10.9739 23.0883 12.3988 23.0883 13.8888V36.5556C23.0883 39.5624 21.1841 42 18.8352 42H4.2531C1.90418 42 0 39.5624 0 36.5556V8.55556C0 5.54867 1.90418 3.11111 4.2531 3.11111H14.4606ZM14.4606 4.66667H4.2531C2.5753 4.66667 1.21517 6.40778 1.21517 8.55556V36.5556C1.21517 38.7033 2.5753 40.4444 4.2531 40.4444H18.8352C20.513 40.4444 21.8731 38.7033 21.8731 36.5556V13.8888C21.8731 12.8245 21.5323 11.8067 20.9303 11.0727L16.5557 5.73945C15.9908 5.05079 15.2406 4.66667 14.4606 4.66667ZM15.5871 0C16.585 0 17.5487 0.449058 18.3115 1.26371L18.4719 1.44385L24.1552 8.15956C24.9698 9.12208 25.4564 10.4508 25.5171 11.8604L25.5235 12.1433L25.575 33.442C25.576 33.8716 25.3048 34.2209 24.9693 34.2222C24.6617 34.2234 24.4068 33.9318 24.3656 33.5524L24.3598 33.4468L24.3084 12.1481C24.3059 11.1442 24.0004 10.1835 23.4599 9.4642L23.331 9.30258L17.6476 2.58688C17.1332 1.97903 16.4722 1.61897 15.7773 1.56318L15.5871 1.55556H7.29103C6.95547 1.55556 6.68345 1.20733 6.68345 0.777778C6.68345 0.384019 6.91202 0.058602 7.20859 0.00710019L7.29103 0H15.5871ZM13.9411 22.1158C16.2207 22.1158 18.0686 24.4813 18.0686 27.3994C18.0686 30.3175 16.2207 32.683 13.9411 32.683C11.9443 32.683 10.2787 30.8679 9.89623 28.4562L13.3206 28.4561C13.4643 28.4561 13.6054 28.4077 13.7299 28.3157C14.1215 28.0263 14.2556 27.3854 14.0295 26.8842L12.1222 22.6552C12.6709 22.3098 13.2883 22.1158 13.9411 22.1158ZM9.90929 18.0295C10.0337 18.1214 10.1371 18.2537 10.2089 18.4131L12.1222 22.6552C10.7547 23.516 9.81366 25.317 9.81366 27.3994C9.81366 27.7613 9.84208 28.1147 9.89623 28.4562H5.67935C5.22721 28.4562 4.86069 27.9869 4.86069 27.4082C4.86069 27.2242 4.89852 27.0435 4.97037 26.8842L8.79098 18.4131C9.01705 17.9118 9.51773 17.7401 9.90929 18.0295ZM14.6496 6.22222C14.9572 6.22222 15.2114 6.51483 15.2516 6.89446L15.2572 7V11.9359C15.2572 12.37 15.5349 12.7419 15.9053 12.7965L15.9998 12.8034H20.0503C20.3859 12.8034 20.6579 13.1516 20.6579 13.5812C20.6579 13.975 20.4293 14.3004 20.1328 14.3519L20.0503 14.359H15.9998C14.9698 14.359 14.1159 13.3707 14.0465 12.1028L14.042 11.9359V7C14.042 6.57044 14.314 6.22222 14.6496 6.22222Z" fill="#D1D292"/>
</svg>
