<svg width="42" height="41" viewBox="0 0 42 41" fill="none" xmlns="http://www.w3.org/2000/svg">
<path d="M27.8793 34.5058C29.679 34.5058 31.1379 35.9541 31.1379 37.7407C31.1379 39.5273 29.679 40.9756 27.8793 40.9756C26.0796 40.9756 24.6207 39.5273 24.6207 37.7407C24.6207 35.9541 26.0796 34.5058 27.8793 34.5058ZM41.2759 37.0218C41.6758 37.0218 42 37.3437 42 37.7407C42 38.1377 41.6758 38.4596 41.2759 38.4596H34.0345C33.6345 38.4596 33.3103 38.1377 33.3103 37.7407C33.3103 37.3437 33.6345 37.0218 34.0345 37.0218H41.2759ZM21.7241 37.0218C22.1241 37.0218 22.4483 37.3437 22.4483 37.7407C22.4483 38.1377 22.1241 38.4596 21.7241 38.4596H0.724138C0.324208 38.4596 0 38.1377 0 37.7407C0 37.3437 0.324208 37.0218 0.724138 37.0218H21.7241ZM14.1207 25.1605C15.9204 25.1605 17.3793 26.6088 17.3793 28.3954C17.3793 30.182 15.9204 31.6303 14.1207 31.6303C12.321 31.6303 10.8621 30.182 10.8621 28.3954C10.8621 26.6088 12.321 25.1605 14.1207 25.1605ZM7.96552 27.6765C8.36545 27.6765 8.68965 27.9984 8.68965 28.3954C8.68965 28.764 8.41011 29.0679 8.04997 29.1094L7.96552 29.1142H0.724138C0.324208 29.1142 0 28.7924 0 28.3954C0 28.0267 0.279546 27.7229 0.639688 27.6813L0.724138 27.6765H7.96552ZM41.2759 27.6765C41.6758 27.6765 42 27.9984 42 28.3954C42 28.764 41.7204 29.0679 41.3603 29.1094L41.2759 29.1142H20.2759C19.8759 29.1142 19.5517 28.7924 19.5517 28.3954C19.5517 28.0267 19.8313 27.7229 20.1914 27.6813L20.2759 27.6765H41.2759ZM16.6552 0C18.6548 0 20.2759 1.60925 20.2759 3.59435V16.534C20.2759 18.5191 18.6548 20.1284 16.6552 20.1284H3.62069C1.62104 20.1284 0 18.5191 0 16.534V3.59435C0 1.60925 1.62104 0 3.62069 0H16.6552ZM38.3793 0C40.379 0 42 1.60925 42 3.59435V16.534C42 18.5191 40.379 20.1284 38.3793 20.1284H25.3448C23.3452 20.1284 21.7241 18.5191 21.7241 16.534V3.59435C21.7241 1.60925 23.3452 0 25.3448 0H38.3793ZM16.6552 1.43774H3.62069C2.4209 1.43774 1.44828 2.40329 1.44828 3.59435V16.534C1.44828 17.7251 2.4209 18.6906 3.62069 18.6906H16.6552C17.855 18.6906 18.8276 17.7251 18.8276 16.534V3.59435C18.8276 2.40329 17.855 1.43774 16.6552 1.43774ZM38.3793 1.43774H25.3448C24.145 1.43774 23.1724 2.40329 23.1724 3.59435V16.534C23.1724 17.7251 24.145 18.6906 25.3448 18.6906H38.3793C39.5791 18.6906 40.5517 17.7251 40.5517 16.534V3.59435C40.5517 2.40329 39.5791 1.43774 38.3793 1.43774ZM33.8236 7.60273C35.8612 7.60273 37.5131 9.24253 37.5131 11.2653C37.5131 13.2881 35.8612 14.9279 33.8236 14.9279C32.0387 14.9279 30.5499 13.6696 30.208 11.9979L33.2689 11.9978C33.3974 11.9978 33.5236 11.9643 33.6348 11.9005C33.9848 11.6999 34.1047 11.2556 33.9027 10.9082L32.1977 7.97665C32.6882 7.73721 33.2401 7.60273 33.8236 7.60273ZM14.0225 7.96666C15.5451 7.96666 16.4131 8.65599 16.4131 9.83769V13.5748H14.7069V12.8954H14.6127C14.3647 13.3631 13.7596 13.6585 13.0603 13.6585C11.9988 13.6585 11.2747 13.0037 11.2747 11.9992C11.2747 10.9997 12.0584 10.4187 13.4818 10.335L14.6871 10.2661V9.83769C14.6871 9.46841 14.4093 9.24684 13.9233 9.24684C13.462 9.24684 13.1644 9.39948 13.0503 9.68998H11.4731C11.5525 8.62644 12.5296 7.96666 14.0225 7.96666ZM8.49028 6.46983L10.8958 13.5748H8.91187L8.46548 12.014H6.1294L5.66813 13.5748H3.86275L6.26331 6.46983H8.49028ZM14.6871 11.2459L13.7596 11.305C13.2388 11.3444 12.966 11.5462 12.966 11.8761C12.966 12.2257 13.2586 12.4424 13.7001 12.4424C14.2556 12.4424 14.6871 12.078 14.6871 11.6053V11.2459ZM30.2197 4.7701C30.3309 4.83386 30.4233 4.92557 30.4875 5.036L32.1977 7.97665C30.9754 8.57333 30.1342 9.8218 30.1342 11.2653C30.1342 11.5162 30.1596 11.7612 30.208 11.9979H26.4387C26.0345 11.9979 25.7069 11.6726 25.7069 11.2714C25.7069 11.1439 25.7407 11.0186 25.8049 10.9082L29.2201 5.036C29.4221 4.68855 29.8697 4.5695 30.2197 4.7701ZM7.35448 8.07006H7.26024L6.47659 10.7141H8.12326L7.35448 8.07006Z" fill="#D1D292"/>
</svg>
