<svg width="34" height="41" viewBox="0 0 34 41" fill="none" xmlns="http://www.w3.org/2000/svg">
<path d="M24.6852 19.8926C25.3385 19.8926 25.8882 20.4302 25.9635 21.1429L26.0604 22.0592C26.5725 22.2282 27.0665 22.4534 27.5358 22.7308L28.1945 22.1578C28.7067 21.7122 29.4416 21.7588 29.9037 22.2662L31.2043 23.6942C31.6663 24.2015 31.7088 25.0084 31.3032 25.5707L30.7813 26.2947C31.0339 26.8099 31.2389 27.3521 31.3927 27.9143L32.227 28.0206C32.8762 28.1032 33.3659 28.7069 33.3659 29.4244V31.444C33.3659 32.1614 32.8763 32.765 32.2272 32.8477L31.3927 32.954C31.2388 33.5163 31.0337 34.0588 30.781 34.574L31.3029 35.2973C31.7087 35.8597 31.6663 36.6667 31.2042 37.1741L29.9036 38.6021C29.4416 39.1094 28.7068 39.1561 28.1947 38.7108L27.5353 38.1377C27.0686 38.4136 26.5774 38.6378 26.0683 38.8064L25.9658 39.7328C25.8874 40.4422 25.339 40.9756 24.6882 40.9756H22.8426C22.1919 40.9756 21.6436 40.4423 21.5651 39.7333L21.4622 38.8063C20.9557 38.6385 20.467 38.4157 20.0025 38.1417L19.3332 38.7177C18.8209 39.1584 18.0896 39.1098 17.6294 38.6045L16.3244 37.1716C15.8643 36.6664 15.82 35.8635 16.2212 35.3011L16.7457 34.5654C16.4962 34.0554 16.2934 33.5188 16.1406 32.9627L15.2969 32.8501C14.6509 32.764 14.1651 32.1619 14.1651 31.4473V29.4208C14.1651 28.7063 14.6508 28.1043 15.2965 28.0181L16.1407 27.9051C16.2935 27.3491 16.4963 26.8127 16.7457 26.3028L16.2214 25.5673C15.8201 25.0048 15.8643 24.2019 16.3245 23.6966L17.6295 22.2637C18.0896 21.7584 18.8208 21.7098 19.333 22.1503L20.003 22.7262C20.4699 22.4509 20.9613 22.2272 21.4706 22.0592L21.5675 21.1431C21.6427 20.4303 22.1924 19.8926 22.8459 19.8926H24.6852ZM24.6852 21.3058H22.8459L22.6468 23.1889L22.2089 23.3037C21.5272 23.4824 20.8784 23.778 20.2835 24.1782L19.9025 24.4345L19.5507 24.1321L18.5395 23.2629L17.2345 24.6958L18.3014 26.1925L18.0681 26.6108C17.7054 27.2608 17.437 27.9694 17.274 28.714L17.1696 29.1909L16.7262 29.2503L15.4521 29.4208V31.4473L17.1694 31.6764L17.2739 32.1536C17.4368 32.8984 17.7053 33.6072 18.0681 34.2574L18.3015 34.6758L18.026 35.0621L17.2345 36.1723L18.5395 37.6053L19.9017 36.4332L20.2829 36.6896C20.8751 37.088 21.5206 37.3829 22.1989 37.5619L22.6333 37.6766L22.6873 38.1634L22.8426 39.5625H24.6882L24.8969 37.6767L25.3314 37.5621C26.0129 37.3823 26.6613 37.0856 27.2557 36.6845L27.6391 36.4257L27.992 36.7324L28.9936 37.6029L30.2942 36.1749L29.2216 34.6884L29.4574 34.2671C29.8246 33.6113 30.0958 32.8956 30.2593 32.1432L30.3639 31.6624L30.8111 31.6055L32.0789 31.444V29.4244L30.3639 29.2058L30.2593 28.725C30.0958 27.9729 29.8248 27.2574 29.4578 26.6017L29.2222 26.1807L29.5015 25.7933L30.2943 24.6935L28.9937 23.2654L27.6399 24.4431L27.2563 24.1842C26.659 23.781 26.0072 23.4833 25.322 23.3037L24.8841 23.1889L24.8322 22.6979L24.6852 21.3058ZM19.9159 0C22.3467 0 24.3288 2.11458 24.4172 4.76171L24.4203 4.93139L24.4523 16.9009C24.4534 17.2911 24.1661 17.6083 23.8107 17.6095C23.4807 17.6106 23.208 17.3387 23.1699 16.9874L23.1654 16.905L23.1333 4.93554C23.1282 3.03973 21.7639 1.49629 20.0552 1.41637L19.9159 1.41312H4.50437C2.77421 1.41312 1.36301 2.91266 1.28994 4.79268L1.28696 4.94593V31.7953C1.28696 33.695 2.65263 35.2446 4.36481 35.3248L4.50437 35.3281H12.0165C12.3719 35.3281 12.66 35.6444 12.66 36.0346C12.66 36.397 12.4116 36.6956 12.0916 36.7364L12.0165 36.7412H4.50437C2.0685 36.7412 0.0842327 34.6181 0.00261191 31.9653L0 31.7953V4.94593C0 2.27128 1.93352 0.0924898 4.34952 0.00286795L4.50437 0H19.9159ZM23.7655 25.5892C26.2024 25.5892 28.1779 27.7583 28.1779 30.4341C28.1779 33.1099 26.2024 35.279 23.7655 35.279C21.3286 35.279 19.3531 33.1099 19.3531 30.4341C19.3531 27.7583 21.3286 25.5892 23.7655 25.5892ZM23.7655 27.0023C22.0393 27.0023 20.64 28.5388 20.64 30.4341C20.64 32.3294 22.0393 33.8659 23.7655 33.8659C25.4916 33.8659 26.8909 32.3294 26.8909 30.4341C26.8909 28.5388 25.4916 27.0023 23.7655 27.0023ZM10.9392 30.7354C11.2946 30.7354 11.5827 31.0518 11.5827 31.442C11.5827 31.8043 11.3343 32.103 11.0142 32.1438L10.9392 32.1485H4.50437C4.14899 32.1485 3.86089 31.8322 3.86089 31.442C3.86089 31.0796 4.1093 30.781 4.42933 30.7402L4.50437 30.7354H10.9392ZM10.9392 26.4961C11.2946 26.4961 11.5827 26.8124 11.5827 27.2026C11.5827 27.565 11.3343 27.8636 11.0142 27.9044L10.9392 27.9092H4.50437C4.14899 27.9092 3.86089 27.5928 3.86089 27.2026C3.86089 26.8403 4.1093 26.5416 4.42933 26.5008L4.50437 26.4961H10.9392ZM13.5131 22.2567C13.8685 22.2567 14.1566 22.573 14.1566 22.9632C14.1566 23.3256 13.9082 23.6242 13.5882 23.6651L13.5131 23.6698H4.50437C4.14899 23.6698 3.86089 23.3535 3.86089 22.9632C3.86089 22.6009 4.1093 22.3023 4.42933 22.2614L4.50437 22.2567H13.5131ZM16.0871 13.4247C17.8172 13.4247 19.2284 14.9242 19.3015 16.8042L19.3045 16.9575V18.3706C19.3045 18.7608 19.0164 19.0772 18.661 19.0772C18.331 19.0772 18.059 18.8044 18.0218 18.453L18.0175 18.3706V16.9575C18.0175 15.8286 17.2138 14.9059 16.2005 14.8414L16.0871 14.8378H8.36527C7.33719 14.8378 6.49681 15.7202 6.4381 16.8329L6.43482 16.9575V18.3706C6.43482 18.7608 6.14673 19.0772 5.79134 19.0772C5.46134 19.0772 5.18936 18.8044 5.15219 18.453L5.14786 18.3706V16.9575C5.14786 15.0577 6.51352 13.5082 8.2257 13.4279L8.36527 13.4247H16.0871ZM12.2262 3.53281C14.3585 3.53281 16.0871 5.43084 16.0871 7.77218C16.0871 10.1135 14.3585 12.0115 12.2262 12.0115C10.0938 12.0115 8.36527 10.1135 8.36527 7.77218C8.36527 5.43084 10.0938 3.53281 12.2262 3.53281ZM12.2262 4.94593C10.8046 4.94593 9.65223 6.21128 9.65223 7.77218C9.65223 9.33307 10.8046 10.5984 12.2262 10.5984C13.6477 10.5984 14.8001 9.33307 14.8001 7.77218C14.8001 6.21128 13.6477 4.94593 12.2262 4.94593Z" fill="#B4B4B4"/>
</svg>
