<svg width="42" height="41" viewBox="0 0 42 41" fill="none" xmlns="http://www.w3.org/2000/svg">
<path d="M13.4717 14.1839C20.9119 14.1839 26.9434 20.1814 26.9434 27.5797C26.9434 34.9781 20.9119 40.9756 13.4717 40.9756C6.03148 40.9756 0 34.9781 0 27.5797C0 20.1814 6.03148 14.1839 13.4717 14.1839ZM36.0566 30.3377C36.463 30.3377 36.7979 30.6419 36.8437 31.0338L36.8491 31.1257V34.6717H40.4151C40.8215 34.6717 41.1564 34.9759 41.2022 35.3678L41.2075 35.4597C41.2075 35.8949 40.8527 36.2477 40.4151 36.2477H36.8491V39.7936C36.8491 40.2288 36.4943 40.5816 36.0566 40.5816C35.6502 40.5816 35.3153 40.2774 35.2695 39.8855L35.2641 39.7936V36.2477H31.6981C31.2917 36.2477 30.9568 35.9435 30.911 35.5516L30.9057 35.4597C30.9057 35.0245 31.2604 34.6717 31.6981 34.6717H35.2641V31.1257C35.2641 30.6905 35.6189 30.3377 36.0566 30.3377ZM13.4717 15.7598C6.9068 15.7598 1.58491 21.0518 1.58491 27.5797C1.58491 34.1077 6.9068 39.3996 13.4717 39.3996C20.0366 39.3996 25.3585 34.1077 25.3585 27.5797C25.3585 21.0518 20.0366 15.7598 13.4717 15.7598ZM16.6415 29.634C18.7722 29.634 20.5101 31.3064 20.6001 33.4031L20.6038 33.574V34.362C20.6038 34.7972 20.249 35.15 19.8113 35.15C19.4049 35.15 19.07 34.8458 19.0242 34.4539L19.0189 34.362V33.574C19.0189 32.315 18.0292 31.2859 16.7812 31.214L16.6415 31.21H10.3019C9.0358 31.21 8.00087 32.1942 7.92856 33.4351L7.92453 33.574V34.362C7.92453 34.7972 7.56973 35.15 7.13207 35.15C6.72568 35.15 6.39073 34.8458 6.34495 34.4539L6.33962 34.362V33.574C6.33962 31.4553 8.02145 29.7272 10.13 29.6377L10.3019 29.634H16.6415ZM13.4717 18.6021C16.0977 18.6021 18.2264 20.7189 18.2264 23.3301C18.2264 25.9413 16.0977 28.058 13.4717 28.058C10.8457 28.058 8.71698 25.9413 8.71698 23.3301C8.71698 20.7189 10.8457 18.6021 13.4717 18.6021ZM28.5283 0C35.9685 0 42 5.99754 42 13.3959C42 20.2867 36.7436 26.035 29.8988 26.7232C29.4634 26.767 29.0747 26.4515 29.0307 26.0185C28.9866 25.5855 29.3039 25.199 29.7394 25.1552C35.7767 24.5482 40.4151 19.4757 40.4151 13.3959C40.4151 6.86793 35.0932 1.57598 28.5283 1.57598C22.5588 1.57598 17.5361 5.9774 16.7482 11.805C16.6898 12.2363 16.2909 12.5389 15.8572 12.4809C15.4234 12.4229 15.1191 12.0263 15.1774 11.595C16.0707 4.98772 21.7626 0 28.5283 0ZM13.4717 20.1781C11.7211 20.1781 10.3019 21.5893 10.3019 23.3301C10.3019 25.0709 11.7211 26.4821 13.4717 26.4821C15.2223 26.4821 16.6415 25.0709 16.6415 23.3301C16.6415 21.5893 15.2223 20.1781 13.4717 20.1781ZM31.6981 15.4502C33.8288 15.4502 35.5667 17.1225 35.6567 19.2192L35.6604 19.3901V20.1781C35.6604 20.6133 35.3056 20.9661 34.8679 20.9661C34.4615 20.9661 34.1266 20.6619 34.0808 20.27L34.0755 20.1781V19.3901C34.0755 18.1312 33.0858 17.1021 31.8378 17.0302L31.6981 17.0262H24.8945C24.4569 17.0262 24.1021 16.6734 24.1021 16.2382C24.1021 15.834 24.408 15.501 24.8021 15.4555L24.8945 15.4502H31.6981ZM28.5283 4.41827C31.1543 4.41827 33.283 6.53505 33.283 9.14623C33.283 11.7574 31.1543 13.8742 28.5283 13.8742C25.9023 13.8742 23.7736 11.7574 23.7736 9.14623C23.7736 6.53505 25.9023 4.41827 28.5283 4.41827ZM28.5283 5.99426C26.7777 5.99426 25.3585 7.40544 25.3585 9.14623C25.3585 10.887 26.7777 12.2982 28.5283 12.2982C30.2789 12.2982 31.6981 10.887 31.6981 9.14623C31.6981 7.40544 30.2789 5.99426 28.5283 5.99426Z" fill="#096634"/>
</svg>
