<svg width="40" height="41" viewBox="0 0 40 41" fill="none" xmlns="http://www.w3.org/2000/svg">
<path d="M36.5517 0C38.4562 0 40 1.5815 40 3.53238V37.4432C40 39.3941 38.4562 40.9756 36.5517 40.9756H24.1379C22.2335 40.9756 20.6897 39.3941 20.6897 37.4432V3.53238C20.6897 1.5815 22.2335 0 24.1379 0H36.5517ZM15.8621 21.1943C17.7665 21.1943 19.3103 22.7758 19.3103 24.7267V37.4432C19.3103 39.3941 17.7665 40.9756 15.8621 40.9756H3.44828C1.54385 40.9756 0 39.3941 0 37.4432V24.7267C0 22.7758 1.54385 21.1943 3.44828 21.1943H15.8621ZM36.5517 1.41295H24.1379C22.9953 1.41295 22.069 2.36185 22.069 3.53238V37.4432C22.069 38.6138 22.9953 39.5627 24.1379 39.5627H36.5517C37.6944 39.5627 38.6207 38.6138 38.6207 37.4432V3.53238C38.6207 2.36185 37.6944 1.41295 36.5517 1.41295ZM15.8621 22.6072H3.44828C2.30562 22.6072 1.37931 23.5561 1.37931 24.7267V37.4432C1.37931 38.6138 2.30562 39.5627 3.44828 39.5627H15.8621C17.0047 39.5627 17.931 38.6138 17.931 37.4432V24.7267C17.931 23.5561 17.0047 22.6072 15.8621 22.6072ZM9.65517 26.1396C12.3214 26.1396 14.4828 28.3537 14.4828 31.0849C14.4828 33.8162 12.3214 36.0303 9.65517 36.0303C6.98897 36.0303 4.82759 33.8162 4.82759 31.0849C4.82759 28.3537 6.98897 26.1396 9.65517 26.1396ZM8.65113 28.9655C8.4495 28.9655 8.28604 29.133 8.28604 29.3395V32.8303C8.28604 32.896 8.30291 32.9605 8.33495 33.0173C8.43577 33.1962 8.65906 33.2575 8.83368 33.1542L11.7848 31.4088C11.8403 31.376 11.8864 31.3288 11.9185 31.2719C12.0193 31.093 11.9594 30.8643 11.7848 30.761L8.83368 29.0156C8.77818 28.9828 8.71522 28.9655 8.65113 28.9655ZM32.213 18.0688C34.1536 18.0688 35.7267 19.6803 35.7267 21.6682C35.7267 23.6561 34.1536 25.2677 32.213 25.2677C30.5131 25.2677 29.0951 24.0311 28.7695 22.3881L31.6847 22.3881C31.807 22.3881 31.9272 22.3551 32.0332 22.2925C32.3665 22.0953 32.4807 21.6587 32.2883 21.3172L30.6645 18.4363C31.1317 18.2009 31.6573 18.0688 32.213 18.0688ZM28.7807 15.285C28.8866 15.3477 28.9746 15.4378 29.0358 15.5463L30.6645 18.4363C29.5004 19.0226 28.6992 20.2496 28.6992 21.6682C28.6992 21.9148 28.7234 22.1555 28.7695 22.3881H25.1797C24.7948 22.3881 24.4828 22.0685 24.4828 21.6742C24.4828 21.5489 24.515 21.4258 24.5761 21.3172L27.8286 15.5463C28.0211 15.2049 28.4473 15.0879 28.7807 15.285ZM15.8621 0C17.7665 0 19.3103 1.5815 19.3103 3.53238V16.2489C19.3103 18.1998 17.7665 19.7813 15.8621 19.7813H3.44828C1.54385 19.7813 0 18.1998 0 16.2489V3.53238C0 1.5815 1.54385 0 3.44828 0H15.8621ZM15.8621 1.41295H3.44828C2.30562 1.41295 1.37931 2.36185 1.37931 3.53238V16.2489C1.37931 17.4195 2.30562 18.3684 3.44828 18.3684H15.8621C17.0047 18.3684 17.931 17.4195 17.931 16.2489V3.53238C17.931 2.36185 17.0047 1.41295 15.8621 1.41295ZM11.7241 12.7166C12.105 12.7166 12.4138 13.0329 12.4138 13.423C12.4138 13.8132 12.105 14.1295 11.7241 14.1295H4.82759C4.4467 14.1295 4.13793 13.8132 4.13793 13.423C4.13793 13.0329 4.4467 12.7166 4.82759 12.7166H11.7241ZM14.4828 9.89066C14.8636 9.89066 15.1724 10.207 15.1724 10.5971C15.1724 10.9873 14.8636 11.3036 14.4828 11.3036H4.82759C4.4467 11.3036 4.13793 10.9873 4.13793 10.5971C4.13793 10.207 4.4467 9.89066 4.82759 9.89066H14.4828ZM11.7241 7.06476C12.105 7.06476 12.4138 7.38106 12.4138 7.77124C12.4138 8.16141 12.105 8.47771 11.7241 8.47771H4.82759C4.4467 8.47771 4.13793 8.16141 4.13793 7.77124C4.13793 7.38106 4.4467 7.06476 4.82759 7.06476H11.7241ZM14.4828 4.23886C14.8636 4.23886 15.1724 4.55516 15.1724 4.94533C15.1724 5.33551 14.8636 5.65181 14.4828 5.65181H4.82759C4.4467 5.65181 4.13793 5.33551 4.13793 4.94533C4.13793 4.55516 4.4467 4.23886 4.82759 4.23886H14.4828Z" fill="#096634"/>
</svg>
